<?xml version="1.0" encoding="UTF-8"?>
<svg xmlns="http://www.w3.org/2000/svg" xmlns:xlink="http://www.w3.org/1999/xlink" id="Group_20008" data-name="Group 20008" width="532.393" height="288.239" viewBox="0 0 532.393 288.239">
  <defs>
    <clipPath id="clip-path">
      <rect id="Rectangle_2017" data-name="Rectangle 2017" width="532.393" height="288.239" fill="none"></rect>
    </clipPath>
  </defs>
  <g id="Group_20007" data-name="Group 20007" clip-path="url(#clip-path)">
    <path id="Path_15761" data-name="Path 15761" d="M450.963,7.627a45.74,45.74,0,0,0,7.175.534,69.339,69.339,0,0,0,8.194-.531c.607,3.8,1.3,7.6,1.972,11.291l.427,2.346A12.339,12.339,0,0,0,480.8,31.788a13.211,13.211,0,0,0,7.408-2.352c3.42-2.316,6.726-4.691,10.227-7.206l1.31-.94.647.652c3.691,3.718,7.205,7.257,10.659,10.873-.085.127-.169.255-.254.383a89.888,89.888,0,0,1-7.266,10c-2.859,3.245-3.507,8.1-1.69,12.659,1.836,4.61,5.679,7.719,10.031,8.114a88.494,88.494,0,0,1,8.868,1.432c1.289.253,2.609.511,3.946.749a50.788,50.788,0,0,0-.059,16.287c-2.063.339-4.12.7-6.127,1.046q-2.205.384-4.41.76c-9.125,1.541-13.522,6.395-13.07,14.428a15.185,15.185,0,0,0,2.128,6.839,114.894,114.894,0,0,0,7.342,10.541l.522.691a68.309,68.309,0,0,0-10.447,10.474c-4.294-3.216-7.96-5.785-11.434-8.015a14.2,14.2,0,0,0-7.662-2.332c-6.348,0-11.639,4.611-12.869,11.215-.726,3.9-1.55,8.388-2.272,12.922-2.814-.182-5.6-.274-8.3-.274s-5.4.092-8.019.275c-.535-4.032-1.276-8.361-2.357-13.791-1.349-6.779-6.578-11.333-13.012-11.333a14.91,14.91,0,0,0-8.56,2.841l-.84.591c-3.157,2.217-6.408,4.5-9.591,6.861a69.112,69.112,0,0,0-10.488-10.444c.906-1.241,1.774-2.491,2.62-3.708,1.539-2.215,2.993-4.307,4.587-6.251a14.063,14.063,0,0,0,1.86-14.572,13.165,13.165,0,0,0-11.688-7.9,48.065,48.065,0,0,1-7.728-1.217c-1.055-.223-2.132-.451-3.229-.658a71.387,71.387,0,0,0,0-15.221c1.129-.193,2.247-.4,3.342-.594,2.9-.525,5.637-1.021,8.391-1.326,5.8-.641,10.425-3.967,12.369-8.9,1.893-4.8.789-10.271-2.953-14.632a73.44,73.44,0,0,1-4.492-6.047c-.619-.894-1.252-1.808-1.907-2.722a54.269,54.269,0,0,0,10.488-10.525c3.04,2.258,6.256,4.556,9.778,6.988a16.435,16.435,0,0,0,9.238,3.159c6.415,0,11.4-4.57,13.008-11.93.784-3.587,1.461-7.438,2.116-12.052m7.1,92.1h.01a25.585,25.585,0,0,0,18.818-8.264,25.161,25.161,0,0,0,6.551-19.408,25.826,25.826,0,0,0-14.108-20.548,24.938,24.938,0,0,0-11.344-2.768c-13.659,0-25.312,11.662-25.444,25.466a24.944,24.944,0,0,0,7.374,17.872,25.743,25.743,0,0,0,18.143,7.65m-9.8,41.37h0m0,0h0M449.7,2.5c-2.445,0-3.232,1.118-3.552,3.436-.586,4.246-1.274,8.49-2.189,12.675-1.133,5.183-4.244,8-8.123,8a11.423,11.423,0,0,1-6.4-2.273q-5.7-3.935-11.242-8.089a3.181,3.181,0,0,0-1.848-.791c-.951,0-1.831.761-3.026,2.347A49.92,49.92,0,0,1,402.813,28.37c-2.745,1.98-3.079,3.133-1.67,5,2.654,3.509,4.941,7.319,7.8,10.647,5.594,6.517,1.806,14.419-6.171,15.3-4.686.518-9.313,1.554-13.978,2.28-1.837.286-2.639,1.028-2.357,3.467a67.64,67.64,0,0,1,.083,16.617c-.382,2.9-.038,3.988,2.19,4.325,4.558.691,9.064,2.1,13.629,2.292,7.443.308,10.455,9.083,6.169,14.311-2.922,3.563-5.359,7.519-8.138,11.2-1.45,1.923-1.63,3.233.949,5.253a63.949,63.949,0,0,1,10.94,10.878c1.16,1.481,2.028,2.187,2.96,2.187a3.394,3.394,0,0,0,1.973-.856c3.854-2.91,7.816-5.677,11.768-8.455a9.921,9.921,0,0,1,5.686-1.932c3.845,0,7.186,2.672,8.109,7.309.984,4.943,1.876,9.917,2.487,14.917.281,2.3,1.129,2.991,3.249,2.991.332,0,.7-.017,1.1-.048q4.219-.327,8.448-.32c3.061,0,6.123.121,9.181.347.245.018.475.028.69.028,2.072,0,2.831-.853,3.137-2.843.733-4.769,1.6-9.52,2.481-14.265.825-4.435,4.15-7.13,7.953-7.13a9.177,9.177,0,0,1,4.961,1.539c4.33,2.781,8.51,5.812,12.613,8.922a3.341,3.341,0,0,0,1.938.85c1.07,0,2-.974,3.475-2.824a63.56,63.56,0,0,1,10.651-10.482c2.3-1.795,2.261-2.982.958-4.728a141,141,0,0,1-8.616-12.185,10.148,10.148,0,0,1-1.436-4.572c-.376-6.661,4.071-8.4,8.91-9.215,4.228-.714,8.447-1.489,12.684-2.151,2.3-.36,2.622-1.593,1.983-5.228a45.88,45.88,0,0,1,.1-15.256c.581-3.59-.045-4.647-2.451-5.03-4.98-.791-9.906-2.065-14.911-2.519-5.281-.48-8.549-8.508-5.041-12.488a112.642,112.642,0,0,0,8.831-12.281c.525-.789.661-2.639.131-3.2-4.725-5.008-9.6-9.875-14.6-14.911a2.27,2.27,0,0,0-2.918-.247c-4.651,3.324-8.936,6.457-13.328,9.431a8.2,8.2,0,0,1-4.6,1.492c-3.416,0-6.43-2.421-7.154-6.413-.9-4.959-1.829-9.915-2.594-14.9-.333-2.172-1.294-2.961-3.412-2.961a13.44,13.44,0,0,0-1.609.112,65.284,65.284,0,0,1-7.9.531,41.177,41.177,0,0,1-6.426-.477A13.046,13.046,0,0,0,449.7,2.5m8.357,92.226a20.648,20.648,0,0,1-20.517-20.474c.106-11.1,9.5-20.514,20.444-20.514a20.017,20.017,0,0,1,9.087,2.23A20.783,20.783,0,0,1,478.458,72.49a20.4,20.4,0,0,1-20.39,22.236Z" fill="#282856"></path>
    <path id="Path_15762" data-name="Path 15762" d="M56.978,159.215c.365,2.187.761,4.361,1.148,6.482l.3,1.637a10.1,10.1,0,0,0,9.907,8.579,10.721,10.721,0,0,0,6.014-1.9c2.357-1.6,4.629-3.227,7.028-4.95,2.106,2.121,4.131,4.164,6.117,6.226a55.176,55.176,0,0,1-4.447,6.065,10.645,10.645,0,0,0,6.814,16.992,60.614,60.614,0,0,1,6.029.976c.442.087.89.175,1.344.261a37.079,37.079,0,0,0-.055,8.881c-.951.162-1.9.326-2.823.488-1.021.177-2.042.355-3.064.528-9.5,1.6-10.578,7.979-10.372,11.636a12.107,12.107,0,0,0,1.692,5.455,74.865,74.865,0,0,0,4.709,6.819,49.187,49.187,0,0,0-5.46,5.468c-2.534-1.87-4.766-3.418-6.9-4.788A11.422,11.422,0,0,0,68.8,232.2a10.7,10.7,0,0,0-10.46,9.056c-.435,2.338-.92,4.973-1.371,7.7-1.528-.077-3.038-.116-4.512-.116-1.439,0-2.873.037-4.285.11-.357-2.453-.827-5.113-1.464-8.314-1.086-5.455-5.328-9.12-10.557-9.12a11.9,11.9,0,0,0-6.838,2.256l-.589.414c-1.826,1.283-3.7,2.6-5.561,3.956a49.726,49.726,0,0,0-5.511-5.483c.346-.489.684-.976,1.017-1.456,1.056-1.518,2.052-2.952,3.126-4.261A11.332,11.332,0,0,0,23.3,215.2a10.666,10.666,0,0,0-9.467-6.4,32.324,32.324,0,0,1-5.138-.817l-.923-.194a51.272,51.272,0,0,0-.013-8.144l.972-.175c1.994-.362,3.878-.7,5.746-.91a11.789,11.789,0,0,0,9.865-7.151,11.438,11.438,0,0,0-2.319-11.743,50.181,50.181,0,0,1-3.035-4.092l-.506-.729A39.292,39.292,0,0,0,24,169.285c1.783,1.3,3.66,2.637,5.68,4.033a12.962,12.962,0,0,0,7.3,2.471c5.145,0,9.285-3.732,10.548-9.509.468-2.142.882-4.415,1.278-7.03a34.734,34.734,0,0,0,3.72.19c1.394,0,2.862-.074,4.45-.225m-4.5,64.063h.008a19.351,19.351,0,0,0,14.235-6.253,19.039,19.039,0,0,0,4.959-14.685,19.53,19.53,0,0,0-10.66-15.545,18.887,18.887,0,0,0-8.592-2.093A19.647,19.647,0,0,0,33.17,203.956a18.9,18.9,0,0,0,5.579,13.54,19.472,19.472,0,0,0,13.725,5.782m-5.826-69.3c-1.7,0-2.253.78-2.476,2.4-.409,2.96-.889,5.919-1.527,8.837-.79,3.614-2.958,5.577-5.663,5.577a7.96,7.96,0,0,1-4.46-1.586c-2.648-1.829-5.268-3.7-7.837-5.638a2.215,2.215,0,0,0-1.289-.552c-.663,0-1.276.531-2.11,1.636a34.826,34.826,0,0,1-7.329,7.367c-1.914,1.381-2.147,2.184-1.164,3.483,1.85,2.446,3.444,5.1,5.435,7.423,3.9,4.544,1.26,10.053-4.3,10.668-3.267.361-6.492,1.084-9.745,1.59-1.28.2-1.84.716-1.643,2.417A47.175,47.175,0,0,1,2.6,209.182c-.267,2.021-.027,2.78,1.526,3.015,3.178.482,6.32,1.466,9.5,1.6,5.188.215,7.289,6.333,4.3,9.977-2.037,2.484-3.736,5.242-5.674,7.812-1.01,1.341-1.135,2.255.662,3.663a44.538,44.538,0,0,1,7.627,7.584c.809,1.032,1.414,1.524,2.064,1.524a2.372,2.372,0,0,0,1.376-.6c2.687-2.029,5.449-3.959,8.2-5.9a6.916,6.916,0,0,1,3.964-1.347c2.681,0,5.01,1.863,5.653,5.1.686,3.446,1.309,6.914,1.735,10.4.195,1.6.787,2.086,2.265,2.086.232,0,.485-.012.763-.034q2.943-.227,5.889-.223c2.135,0,4.27.085,6.4.242.171.013.331.019.481.019,1.444,0,1.974-.594,2.187-1.981.511-3.326,1.114-6.638,1.73-9.946A5.694,5.694,0,0,1,68.8,237.2a6.4,6.4,0,0,1,3.459,1.074c3.019,1.938,5.933,4.051,8.793,6.219a2.327,2.327,0,0,0,1.352.593c.746,0,1.4-.679,2.422-1.969a44.381,44.381,0,0,1,7.426-7.308c1.6-1.251,1.576-2.078.668-3.3a98.237,98.237,0,0,1-6.007-8.495,7.092,7.092,0,0,1-1-3.187c-.261-4.644,2.839-5.856,6.212-6.425,2.948-.5,5.89-1.038,8.843-1.5,1.607-.251,1.829-1.111,1.383-3.646a31.993,31.993,0,0,1,.067-10.636c.4-2.5-.031-3.24-1.708-3.506-3.473-.552-6.907-1.44-10.4-1.757-3.682-.334-5.96-5.931-3.515-8.706a78.582,78.582,0,0,0,6.157-8.562,2.412,2.412,0,0,0,.092-2.231c-3.295-3.493-6.695-6.886-10.176-10.4a1.585,1.585,0,0,0-2.035-.172c-3.242,2.317-6.229,4.5-9.291,6.575a5.716,5.716,0,0,1-3.21,1.04,5.112,5.112,0,0,1-4.988-4.471c-.626-3.458-1.275-6.913-1.808-10.385a2.055,2.055,0,0,0-2.379-2.065,9.368,9.368,0,0,0-1.122.079,45.538,45.538,0,0,1-5.506.369,28.6,28.6,0,0,1-4.479-.332,9.109,9.109,0,0,0-1.4-.128m5.826,64.3A14.4,14.4,0,0,1,38.17,204a14.593,14.593,0,0,1,14.254-14.3,13.948,13.948,0,0,1,6.335,1.555,14.489,14.489,0,0,1,7.936,11.518,14.224,14.224,0,0,1-14.215,15.5Z" fill="#282856"></path>
    <path id="Path_15763" data-name="Path 15763" d="M455.674,287.239H74.658c-6.026,0-10.911-6.147-10.911-13.73V87.628c0-7.583,4.885-13.73,10.911-13.73H455.674c6.026,0,10.911,6.147,10.911,13.73V273.509c0,7.583-4.885,13.73-10.911,13.73" fill="#1d1d33"></path>
    <path id="Path_15764" data-name="Path 15764" d="M455.674,287.239H74.658c-6.026,0-10.911-6.147-10.911-13.73V87.628c0-7.583,4.885-13.73,10.911-13.73H455.674c6.026,0,10.911,6.147,10.911,13.73V273.509C466.585,281.092,461.7,287.239,455.674,287.239Z" fill="none" stroke="#4c7799" stroke-miterlimit="10" stroke-width="2"></path>
    <rect id="Rectangle_1987" data-name="Rectangle 1987" width="64.2" height="2.02" transform="translate(376.676 98.911)" fill="#157fce"></rect>
    <rect id="Rectangle_1988" data-name="Rectangle 1988" width="150.62" height="2.02" transform="translate(206.056 98.911)" fill="#157fce"></rect>
    <rect id="Rectangle_1989" data-name="Rectangle 1989" width="96.6" height="2.02" transform="translate(89.456 98.911)" fill="#157fce"></rect>
    <rect id="Rectangle_1990" data-name="Rectangle 1990" width="166.01" height="2.02" transform="translate(89.456 119.531)" fill="#157fce"></rect>
    <rect id="Rectangle_1991" data-name="Rectangle 1991" width="103.21" height="2.02" transform="translate(275.466 119.531)" fill="#157fce"></rect>
    <rect id="Rectangle_1992" data-name="Rectangle 1992" width="42.2" height="2.02" transform="translate(398.676 119.531)" fill="#157fce"></rect>
    <rect id="Rectangle_1993" data-name="Rectangle 1993" width="166.01" height="2.02" transform="translate(274.866 160.776)" fill="#157fce"></rect>
    <rect id="Rectangle_1994" data-name="Rectangle 1994" width="103.21" height="2.02" transform="translate(151.656 160.776)" fill="#157fce"></rect>
    <rect id="Rectangle_1995" data-name="Rectangle 1995" width="42.2" height="2.02" transform="translate(89.456 160.776)" fill="#157fce"></rect>
    <rect id="Rectangle_1996" data-name="Rectangle 1996" width="32.97" height="2.01" transform="translate(89.456 140.161)" fill="#157fce"></rect>
    <rect id="Rectangle_1997" data-name="Rectangle 1997" width="46.47" height="2.01" transform="translate(142.426 140.161)" fill="#157fce"></rect>
    <rect id="Rectangle_1998" data-name="Rectangle 1998" width="123.1" height="2.01" transform="translate(208.896 140.161)" fill="#157fce"></rect>
    <rect id="Rectangle_1999" data-name="Rectangle 1999" width="88.88" height="2.01" transform="translate(351.996 140.161)" fill="#157fce"></rect>
    <rect id="Rectangle_2000" data-name="Rectangle 2000" width="64.2" height="2.02" transform="translate(89.456 202.021)" fill="#157fce"></rect>
    <rect id="Rectangle_2001" data-name="Rectangle 2001" width="150.62" height="2.02" transform="translate(173.656 202.021)" fill="#157fce"></rect>
    <rect id="Rectangle_2002" data-name="Rectangle 2002" width="96.6" height="2.02" transform="translate(344.276 202.022)" fill="#157fce"></rect>
    <rect id="Rectangle_2003" data-name="Rectangle 2003" width="32.97" height="2.01" transform="translate(407.906 181.406)" fill="#157fce"></rect>
    <rect id="Rectangle_2004" data-name="Rectangle 2004" width="46.47" height="2.01" transform="translate(341.436 181.406)" fill="#157fce"></rect>
    <rect id="Rectangle_2005" data-name="Rectangle 2005" width="123.1" height="2.01" transform="translate(198.336 181.406)" fill="#157fce"></rect>
    <rect id="Rectangle_2006" data-name="Rectangle 2006" width="88.88" height="2.01" transform="translate(89.456 181.406)" fill="#157fce"></rect>
    <path id="Path_15765" data-name="Path 15765" d="M244.027,191.723a13.785,13.785,0,0,1-11.691-6.207,13.753,13.753,0,0,1-2.376.209,14.349,14.349,0,0,1-11.808-6.424,8.66,8.66,0,0,0-1.846-1.766c-5.334-4.021-6.853-9.444-5.876-14.269a14.02,14.02,0,0,1-3.046-3.007,14.9,14.9,0,0,1-2.561-11.556,10.035,10.035,0,0,0-.086-2.585,14.912,14.912,0,0,1,5.6-13.874,13.838,13.838,0,0,1,3.917-12.16l1.059-1.049c1.8-1.793,3.672-3.646,5.594-5.46a13.635,13.635,0,0,1,9.412-3.665,14.728,14.728,0,0,1,2.261.176,13.956,13.956,0,0,1,11.565-5.9,18.423,18.423,0,0,1,2.952.251,9.31,9.31,0,0,0,1.478.133,4.633,4.633,0,0,0,.789-.06,18.942,18.942,0,0,1,3.348-.319,13.842,13.842,0,0,1,11.464,5.815,13.751,13.751,0,0,1,2.649-.261,14.173,14.173,0,0,1,11.324,5.759,14.41,14.41,0,0,0,2.37,2.424c4.114,3.275,7.009,8.643,5.867,14.306a14.237,14.237,0,0,1,5.732,12.773,37.576,37.576,0,0,0-.013,5.632c.446,5.768-1.951,10.657-6.183,13.41.832,4.677-.655,9.876-5.654,13.795a14.667,14.667,0,0,0-2.479,2.5,14.305,14.305,0,0,1-11.411,5.809h0a13.949,13.949,0,0,1-2.646-.251,13.825,13.825,0,0,1-11.457,5.813,18.338,18.338,0,0,1-2.408-.168,11.954,11.954,0,0,0-1.559-.1,21,21,0,0,0-2.416.155,16.238,16.238,0,0,1-1.859.109" fill="#1d1d33"></path>
    <path id="Path_15766" data-name="Path 15766" d="M293.672,198.764a13.454,13.454,0,0,1-8.89-3.32,13.551,13.551,0,0,1-9.742-5.59,14.009,14.009,0,0,1-5.664-10.119c-.122-.15-.241-.3-.356-.459a13.815,13.815,0,0,1-2.538-10.327c-.006-.054-.013-.108-.019-.161a14.032,14.032,0,0,1,2.93-10.63,13.408,13.408,0,0,1,3.961-8.44l.472-.468c1.084-1.077,2.148-2.13,3.235-3.157a13.216,13.216,0,0,1,7.839-3.532,13.545,13.545,0,0,1,8.835-3.175,15.57,15.57,0,0,1,2.341.181,15.484,15.484,0,0,1,2.318-.177,13.5,13.5,0,0,1,8.6,3.052,13.745,13.745,0,0,1,9.869,5.354,2.113,2.113,0,0,0,.32.343A13.8,13.8,0,0,1,322.7,158.1a13.733,13.733,0,0,1,2.993,9.811,14.581,14.581,0,0,0-.009,2.169,13.906,13.906,0,0,1-3.261,10.22,13.9,13.9,0,0,1-5.415,9.665,2.128,2.128,0,0,0-.344.358,13.813,13.813,0,0,1-9.911,5.384,13.5,13.5,0,0,1-8.6,3.056,15.737,15.737,0,0,1-2.082-.142,5.739,5.739,0,0,0-.718.045,14.6,14.6,0,0,1-1.684.1" fill="#1d1d33"></path>
    <path id="Path_15767" data-name="Path 15767" d="M223.246,130.5a.977.977,0,0,1,.106-1.255c2.166-2.147,4.258-4.244,6.412-6.276a1.488,1.488,0,0,1,1.376.056,48.345,48.345,0,0,1,5.281,3.8c1.711,1.508,5.164.1,5.37-2.168.195-2.152.743-4.27,1.083-6.411.164-1.035.619-1.3,2.163-1.054a19.73,19.73,0,0,0,6.559.041c1.564-.275,2.094-.138,2.249.853.284,1.822.617,3.636.924,5.454.351,2.08,1.1,3.992,3.963,3.831a4.357,4.357,0,0,0,1.966-.618,60.7,60.7,0,0,0,5.24-3.7c.75-.561,1.26-.576,2.032.412a27.387,27.387,0,0,0,4.507,4.579c1.221.972,1.554,1.4.849,2.328-1.336,1.764-2.641,3.561-3.836,5.423a3.508,3.508,0,0,0,2.4,5.553c2.041.38,4.084.751,6.134,1.067.945.145,1.293.528,1.211,1.645a50.091,50.091,0,0,0-.011,7.581c.1,1.261-.124,1.728-1.266,1.867-2.15.263-4.289.647-6.414,1.07a3.618,3.618,0,0,0-2.312,5.931c1.194,1.7,2.384,3.4,3.635,5.061.621.822.473,1.3-.572,2.121a27.472,27.472,0,0,0-4.678,4.7c-.867,1.108-1.432,1.031-2.258.408-1.585-1.2-3.286-2.243-4.818-3.5a3.762,3.762,0,0,0-6.154,2.652,55.165,55.165,0,0,1-.985,5.86c-.145.959-.614,1.106-1.86.942a29.1,29.1,0,0,0-7.145.036c-1.049.121-1.368-.224-1.491-1.014-.312-2.006-.758-3.995-.98-6.01-.38-3.43-3.777-5.059-6.58-2.653-1.431,1.228-3.069,2.211-4.578,3.352-.8.606-1.3.462-2.148-.718a21.448,21.448,0,0,0-4.544-4.52c-1.086-.819-1.273-1.294-.668-2.1,1.194-1.585,2.349-3.2,3.477-4.834,1.952-2.826.908-5.507-2.461-6.244-1.8-.393-3.625-.689-5.451-.941-1.229-.17-1.674-.645-1.4-2.391a22.208,22.208,0,0,0-.023-6.158c-.171-1.4.081-1.984,1.225-2.16,2.142-.329,4.273-.729,6.4-1.115a3.155,3.155,0,0,0,2.116-5.056c-1.279-1.888-2.626-3.731-4.055-5.73m33.909,17.486a8.772,8.772,0,0,0-9.561-8.767,8.934,8.934,0,0,0-7.1,4.9c-3.1,6.126,1.792,12.639,7.862,12.7a8.878,8.878,0,0,0,8.8-8.826" fill="#31bdf4"></path>
    <path id="Path_15768" data-name="Path 15768" d="M282.374,159.583a.53.53,0,0,1,.058-.682c1.177-1.167,2.315-2.307,3.486-3.412a.812.812,0,0,1,.749.03,26.412,26.412,0,0,1,2.871,2.065,1.908,1.908,0,0,0,2.919-1.178c.107-1.17.4-2.322.589-3.487.091-.562.337-.708,1.177-.573a10.7,10.7,0,0,0,3.566.023c.85-.149,1.138-.075,1.223.464.155.99.336,1.976.5,2.965.192,1.131.6,2.171,2.154,2.083a2.355,2.355,0,0,0,1.069-.336,32.64,32.64,0,0,0,2.849-2.014c.409-.305.686-.313,1.105.224a14.845,14.845,0,0,0,2.451,2.49c.664.528.845.759.461,1.266-.727.959-1.435,1.936-2.085,2.948a1.909,1.909,0,0,0,1.308,3.02c1.108.206,2.22.408,3.334.579.513.079.7.288.658.9a27.4,27.4,0,0,0-.007,4.122c.054.686-.066.939-.687,1.015-1.168.143-2.332.352-3.487.582a1.968,1.968,0,0,0-1.258,3.225c.65.924,1.3,1.85,1.978,2.751.336.447.256.708-.313,1.154a14.971,14.971,0,0,0-2.543,2.557c-.472.6-.778.561-1.228.222-.862-.65-1.787-1.219-2.619-1.9a2.045,2.045,0,0,0-3.345,1.443,30.4,30.4,0,0,1-.537,3.186c-.079.521-.333.6-1.01.512a15.84,15.84,0,0,0-3.886.019c-.57.066-.743-.121-.811-.551-.169-1.09-.411-2.172-.532-3.267a2.088,2.088,0,0,0-3.577-1.443c-.779.667-1.67,1.2-2.49,1.823-.436.329-.7.251-1.168-.391a11.658,11.658,0,0,0-2.471-2.458c-.59-.445-.692-.7-.363-1.139.649-.862,1.277-1.741,1.89-2.629,1.061-1.536.494-2.994-1.338-3.394-.978-.214-1.97-.375-2.963-.512-.669-.092-.911-.351-.761-1.3a12.034,12.034,0,0,0-.012-3.348c-.092-.764.044-1.079.667-1.174,1.164-.179,2.323-.4,3.483-.607a1.715,1.715,0,0,0,1.149-2.749c-.7-1.027-1.428-2.028-2.205-3.116m18.437,9.508a4.769,4.769,0,0,0-5.2-4.767,4.858,4.858,0,0,0-3.862,2.662,4.78,4.78,0,1,0,9.061,2.105" fill="#31bdf4"></path>
    <path id="Path_15769" data-name="Path 15769" d="M153.753,85.5H95.4a5.942,5.942,0,0,1-5.942-5.942V21.208A5.942,5.942,0,0,1,95.4,15.266h58.355a5.942,5.942,0,0,1,5.942,5.942V79.563a5.942,5.942,0,0,1-5.942,5.942" fill="#1d1d33"></path>
    <rect id="Rectangle_2007" data-name="Rectangle 2007" width="70.239" height="70.239" rx="5.942" transform="translate(89.456 15.266)" fill="none" stroke="#4c7799" stroke-miterlimit="10" stroke-width="2"></rect>
    <rect id="Rectangle_2008" data-name="Rectangle 2008" width="10.075" height="10.075" transform="translate(105.075 34.46)" fill="#1eb473"></rect>
    <rect id="Rectangle_2009" data-name="Rectangle 2009" width="10.075" height="10.075" transform="translate(117.75 34.46)" fill="#1eb473"></rect>
    <rect id="Rectangle_2010" data-name="Rectangle 2010" width="10.075" height="10.075" transform="translate(105.075 47.135)" fill="#1eb473"></rect>
    <rect id="Rectangle_2011" data-name="Rectangle 2011" width="10.075" height="10.075" transform="translate(130.425 47.135)" fill="#1eb473"></rect>
    <rect id="Rectangle_2012" data-name="Rectangle 2012" width="10.075" height="10.075" transform="translate(117.75 47.135)" fill="#1eb473"></rect>
    <rect id="Rectangle_2013" data-name="Rectangle 2013" width="10.075" height="10.075" transform="translate(105.075 59.81)" fill="#1eb473"></rect>
    <rect id="Rectangle_2014" data-name="Rectangle 2014" width="10.075" height="10.075" transform="translate(130.425 59.81)" fill="#1eb473"></rect>
    <rect id="Rectangle_2015" data-name="Rectangle 2015" width="10.075" height="10.075" transform="translate(117.75 59.81)" fill="#1eb473"></rect>
    <rect id="Rectangle_2016" data-name="Rectangle 2016" width="13.65" height="13.65" transform="translate(130.425 30.885)" fill="#4d4e4e"></rect>
    <path id="Path_15770" data-name="Path 15770" d="M182.537,233h1.435v-4.1h3.772v-1.337h-3.772v-4.107h-1.435v4.1h-3.682V228.9h3.682Z" fill="#f8f8f8"></path>
    <path id="Path_15771" data-name="Path 15771" d="M170.511,241.639h2.066v-6.061h5.654V233.7h-5.659v-5.969h-2.065v2.984h0V233.7h-5.576v1.874h5.576Z" fill="#f8f8f8"></path>
    <path id="Path_15772" data-name="Path 15772" d="M193.852,241.639H196v-5.97h5.569V233.7H196v-5.969h-2.149V233.7h-5.569v1.965h5.569Z" fill="#f8f8f8"></path>
    <path id="Path_15773" data-name="Path 15773" d="M295.477,232.37v25.416h2.871v-25.42h-2.871Z" fill="#f8f8f8"></path>
    <path id="Path_15774" data-name="Path 15774" d="M227.067,235.936H224.2v8.111h-7.72v2.679h7.72v8.74h2.871v-8.74h7.716v-2.679h-7.716Z" fill="#f8f8f8"></path>
    <path id="Path_15775" data-name="Path 15775" d="M283.909,245.369a6.559,6.559,0,0,0-1.632-2.408,7.166,7.166,0,0,0-2.875-1.373,7.01,7.01,0,0,0-1.789-.1,9.636,9.636,0,0,0-1.842.275l-.966.277c-.145.038-.161-.161-.161-3.472v-3.531h-2.92l.031,9.661c.018,5.308.061,9.672.092,9.708a4.582,4.582,0,0,0,.821.284,11.452,11.452,0,0,0,4.223.545,8.943,8.943,0,0,0,2.6-.192,9.878,9.878,0,0,0,1.348-.494,5.978,5.978,0,0,0,2.225-1.715,6.814,6.814,0,0,0,1.138-2.365,10.566,10.566,0,0,0,.2-1.691,8.632,8.632,0,0,0-.094-1.94,8.909,8.909,0,0,0-.4-1.471m-2.6,3.72a6.118,6.118,0,0,1-.3,1.248,4.106,4.106,0,0,1-.476.885,4.24,4.24,0,0,1-.635.628,3.97,3.97,0,0,1-.9.492,4.43,4.43,0,0,1-1.661.235,7.211,7.211,0,0,1-2.642-.369V244.79l.668-.235v0c.376-.132.834-.277,1.035-.319a7.108,7.108,0,0,1,.988-.092,3.784,3.784,0,0,1,2.851,1.078,5.009,5.009,0,0,1,1.071,3.863" fill="#f8f8f8"></path>
    <path id="Path_15776" data-name="Path 15776" d="M184.511,253.413v-6.689h6.2v-2.493h-6.2v-6.69H182v6.69h-6.195v2.493H182v6.689Z" fill="#f8f8f8"></path>
    <path id="Path_15777" data-name="Path 15777" d="M202.107,240.486h-1.88v4.19h-3.772v1.7h3.772v4.192h1.882v-4.192h3.77v-1.7h-3.772Z" fill="#f8f8f8"></path>
    <path id="Path_15778" data-name="Path 15778" d="M165.751,250.2v-4.013l3.772-.134v-1.288h-3.772v-4.016h-1.44v4.018h-3.68v1.42h3.68V250.2Z" fill="#f8f8f8"></path>
    <path id="Path_15779" data-name="Path 15779" d="M322.6,246.149a8.563,8.563,0,0,0-.49-1.334,7.642,7.642,0,0,0-.693-1.15,5.754,5.754,0,0,0-.935-.93,6.341,6.341,0,0,0-2.148-1.042,9.115,9.115,0,0,0-1.48-.187v0h0a7.57,7.57,0,0,0-1.639.094,8.069,8.069,0,0,0-1.346.4,6.946,6.946,0,0,0-1.281.738,7.8,7.8,0,0,0-1.062,1,8.194,8.194,0,0,0-.785,1.247,8.512,8.512,0,0,0-.72,4.6,7.271,7.271,0,0,0,.948,2.718,7.412,7.412,0,0,0,2.35,2.2,8.252,8.252,0,0,0,3.26.894,8.661,8.661,0,0,0,2.023,0,14.455,14.455,0,0,0,1.773-.324,11.306,11.306,0,0,0,1.279-.454l.494-.223a11.587,11.587,0,0,0-.091-2.679,1.951,1.951,0,0,0-.427.177,7.75,7.75,0,0,1-.919.353,12.889,12.889,0,0,1-1.389.327,13.893,13.893,0,0,1-1.891.134,7.922,7.922,0,0,1-1.523-.125,5.658,5.658,0,0,1-.854-.318,7.153,7.153,0,0,1-.677-.411,3.861,3.861,0,0,1-.6-.675,4.435,4.435,0,0,1-.729-1.883l-.058-.333H322.9a17.222,17.222,0,0,0-.306-2.813m-6.133.671a22.359,22.359,0,0,1-3.208-.092,2.668,2.668,0,0,1,.217-.512,5.04,5.04,0,0,1,.567-.827,4.468,4.468,0,0,1,.843-.684,4.76,4.76,0,0,1,.973-.427,4.041,4.041,0,0,1,2.249.118,2.142,2.142,0,0,1,.847.568,3.447,3.447,0,0,1,.486.7,5.857,5.857,0,0,1,.239,1.16Z" fill="#f8f8f8"></path>
    <path id="Path_15780" data-name="Path 15780" d="M366.763,241.736c0,8.7-.009,9-.174,9.54a3.06,3.06,0,0,1-.477.93,2.644,2.644,0,0,1-.746.552,4.118,4.118,0,0,1-3.227,0,2.676,2.676,0,0,1-.746-.552,3.236,3.236,0,0,1-.477-.93c-.167-.545-.176-.836-.176-5.057l.009-4.483h-2.978l.033,4.843c.025,4.554.032,4.863.208,5.366a5.647,5.647,0,0,0,.459.977,5.386,5.386,0,0,0,.628.78,6.011,6.011,0,0,0,.878.651,7.216,7.216,0,0,0,1.264.545,6.943,6.943,0,0,0,1.616.284,17.661,17.661,0,0,0,1.8.011,7.726,7.726,0,0,0,1.616-.293,5.584,5.584,0,0,0,2.131-1.2,4.863,4.863,0,0,0,1.1-1.757c.17-.51.179-.785.188-5.371l.016-4.84Z" fill="#f8f8f8"></path>
    <path id="Path_15781" data-name="Path 15781" d="M254.99,241.829a2.316,2.316,0,0,1-.027.443c-.009.007-.284-.118-.6-.259a7.616,7.616,0,0,0-1.214-.412,9.69,9.69,0,0,0-1.463-.134,9.853,9.853,0,0,0-1.48.125,7.752,7.752,0,0,0-1.187.345,6.8,6.8,0,0,0-1.077.568,7.5,7.5,0,0,0-1.062.936,6.982,6.982,0,0,0-1.416,2.574,8.222,8.222,0,0,0-.239,2.008,8.342,8.342,0,0,0,.11,2.1,8.864,8.864,0,0,0,.375,1.288,7.656,7.656,0,0,0,.6,1.113,6.688,6.688,0,0,0,.912,1.055,7.318,7.318,0,0,0,2.875,1.463,10,10,0,0,0,2.334.223,11.354,11.354,0,0,0,2.735-.141c.619-.109,1.234-.246,1.84-.409l.719-.219c.1-1.974.135-4.923.135-7.834v-5.288h-2.869s0,.45,0,.456m-.056,6.833a26.228,26.228,0,0,1-.161,3.7,5.422,5.422,0,0,1-.821.165,11.366,11.366,0,0,1-1.788.067,4.526,4.526,0,0,1-1.617-.257A3.622,3.622,0,0,1,248.7,250.6a5.245,5.245,0,0,1-.354-1.068,6.107,6.107,0,0,1,.043-2.424,3.944,3.944,0,0,1,.93-1.831,3.859,3.859,0,0,1,.785-.622h0a4.01,4.01,0,0,1,2.231-.485,5.318,5.318,0,0,1,1.255.193,9.878,9.878,0,0,1,1.4.668Z" fill="#f8f8f8"></path>
    <path id="Path_15782" data-name="Path 15782" d="M343.785,241.822a1.713,1.713,0,0,1-.026.443c-.009.007-.284-.118-.6-.259a7.6,7.6,0,0,0-1.263-.418,10.124,10.124,0,0,0-3.363.094,6.106,6.106,0,0,0-3.5,2.593,6.826,6.826,0,0,0-.615,1.3,10.057,10.057,0,0,0-.333,1.29,11.341,11.341,0,0,0-.065,1.922,6.949,6.949,0,0,0,.266,2.008,8.1,8.1,0,0,0,.535,1.288,7.051,7.051,0,0,0,.8,1.1,6.23,6.23,0,0,0,2.641,1.657,14.061,14.061,0,0,0,1.388.358,17.464,17.464,0,0,0,4.376-.092,16.548,16.548,0,0,0,1.77-.393l.72-.219c.107-3.218.134-6.171.134-8.637v-4.483h-2.868Zm-.08,6.833a22.97,22.97,0,0,1-.143,3.7,3.652,3.652,0,0,1-.754.161,13.317,13.317,0,0,1-1.562.094,5.545,5.545,0,0,1-1.416-.141,3.551,3.551,0,0,1-1.712-.988,4.438,4.438,0,0,1-.615-.811,5.075,5.075,0,0,1-.458-2.252,4.276,4.276,0,0,1,1.062-3.143,3.882,3.882,0,0,1,.784-.622l.007,0a4.282,4.282,0,0,1,3.126-.384,9.067,9.067,0,0,1,1.706.726Z" fill="#f8f8f8"></path>
    <path id="Path_15783" data-name="Path 15783" d="M172.657,249.225h-2.146v5.97h-5.576v1.965h5.576v5.974h2.148V257.16h5.572V255.2h-5.574Z" fill="#f8f8f8"></path>
    <path id="Path_15784" data-name="Path 15784" d="M196,249.225h-2.149v5.97h-5.569v1.873h5.569v6.061H196v-6.061h5.569V255.2H196Z" fill="#f8f8f8"></path>
    <path id="Path_15785" data-name="Path 15785" d="M184.243,257.695H182.36v4.192h-3.771v1.7h3.771v4.19h1.883v-4.192h3.77v-1.7h-3.77Z" fill="#f8f8f8"></path>
  </g>
</svg>
